
          <svg data-logo="logo" xmlns="http://www.w3.org/2000/svg" viewBox="0 0 116 21">
            <g id="logogram" transform="translate(0, 10.5) rotate(0)"></g>
            <g id="logotype" transform="translate(0, 1)"><path fill="#288f68" d="M11.55 16.27Q14.88 16.27 16.91 14.03L16.91 14.03L18.73 16.20Q17.50 17.67 15.63 18.44Q13.76 19.21 11.45 19.21L11.45 19.21Q8.51 19.21 6.23 18.00Q3.96 16.80 2.71 14.63Q1.47 12.45 1.47 9.72L1.47 9.72Q1.47 7.03 2.68 4.86Q3.89 2.69 6.00 1.48Q8.12 0.27 10.78 0.27L10.78 0.27Q13.30 0.27 15.37 1.41Q17.43 2.55 18.66 4.61Q19.88 6.68 19.92 9.37L19.92 9.37L5.18 12.24Q5.88 14.17 7.54 15.22Q9.21 16.27 11.55 16.27L11.55 16.27ZM10.78 3.11Q9.03 3.11 7.65 3.91Q6.27 4.72 5.50 6.17Q4.73 7.62 4.73 9.55L4.73 9.55L4.73 9.90L16.59 7.66Q16.14 5.63 14.56 4.37Q12.99 3.11 10.78 3.11L10.78 3.11ZM31.92 19.21Q29.09 19.21 26.86 17.98Q24.64 16.76 23.38 14.61Q22.12 12.45 22.12 9.72L22.12 9.72Q22.12 6.99 23.38 4.84Q24.64 2.69 26.86 1.48Q29.09 0.27 31.92 0.27L31.92 0.27Q34.44 0.27 36.42 1.29Q38.40 2.30 39.48 4.23L39.48 4.23L36.93 5.87Q36.05 4.54 34.76 3.88Q33.46 3.21 31.89 3.21L31.89 3.21Q30.07 3.21 28.61 4.02Q27.16 4.82 26.34 6.31Q25.52 7.80 25.52 9.72L25.52 9.72Q25.52 11.68 26.34 13.17Q27.16 14.66 28.61 15.46Q30.07 16.27 31.89 16.27L31.89 16.27Q33.46 16.27 34.76 15.61Q36.05 14.94 36.93 13.61L36.93 13.61L39.48 15.22Q38.40 17.14 36.42 18.18Q34.44 19.21 31.92 19.21L31.92 19.21ZM51.14 16.27Q54.46 16.27 56.49 14.03L56.49 14.03L58.31 16.20Q57.09 17.67 55.21 18.44Q53.34 19.21 51.03 19.21L51.03 19.21Q48.09 19.21 45.81 18.00Q43.54 16.80 42.30 14.63Q41.05 12.45 41.05 9.72L41.05 9.72Q41.05 7.03 42.26 4.86Q43.47 2.69 45.59 1.48Q47.70 0.27 50.37 0.27L50.37 0.27Q52.89 0.27 54.95 1.41Q57.02 2.55 58.24 4.61Q59.47 6.68 59.50 9.37L59.50 9.37L44.77 12.24Q45.47 14.17 47.13 15.22Q48.79 16.27 51.14 16.27L51.14 16.27ZM50.37 3.11Q48.62 3.11 47.23 3.91Q45.85 4.72 45.08 6.17Q44.31 7.62 44.31 9.55L44.31 9.55L44.31 9.90L56.17 7.66Q55.72 5.63 54.15 4.37Q52.57 3.11 50.37 3.11L50.37 3.11ZM88.34 0.45L91.70 0.45L91.70 10.71Q91.70 14.80 89.67 17.00Q87.64 19.21 83.79 19.21L83.79 19.21Q79.24 19.21 77.49 15.88L77.49 15.88Q76.58 17.57 75.02 18.39Q73.47 19.21 71.16 19.21L71.16 19.21Q67.27 19.21 65.26 17.00Q63.24 14.80 63.24 10.71L63.24 10.71L63.24 0.45L66.61 0.45L66.61 10.39Q66.61 13.36 67.69 14.78Q68.78 16.20 71.16 16.20L71.16 16.20Q73.53 16.20 74.67 14.77Q75.81 13.33 75.81 10.39L75.81 10.39L75.81 0.45L79.17 0.45L79.17 10.39Q79.17 13.33 80.31 14.77Q81.44 16.20 83.83 16.20L83.83 16.20Q86.17 16.20 87.25 14.78Q88.34 13.36 88.34 10.39L88.34 10.39L88.34 0.45ZM105.07 19.21Q102.31 19.21 100.10 17.98Q97.90 16.76 96.65 14.61Q95.41 12.45 95.41 9.72L95.41 9.72Q95.41 6.99 96.65 4.84Q97.90 2.69 100.10 1.48Q102.31 0.27 105.07 0.27L105.07 0.27Q107.84 0.27 110.02 1.48Q112.21 2.69 113.45 4.84Q114.70 6.99 114.70 9.72L114.70 9.72Q114.70 12.45 113.45 14.61Q112.21 16.76 110.02 17.98Q107.84 19.21 105.07 19.21L105.07 19.21ZM105.07 16.27Q106.86 16.27 108.27 15.45Q109.69 14.63 110.50 13.14Q111.30 11.65 111.30 9.72L111.30 9.72Q111.30 7.80 110.50 6.31Q109.69 4.82 108.27 4.02Q106.86 3.21 105.07 3.21L105.07 3.21Q103.29 3.21 101.87 4.02Q100.45 4.82 99.63 6.31Q98.81 7.80 98.81 9.72L98.81 9.72Q98.81 11.65 99.63 13.14Q100.45 14.63 101.87 15.45Q103.29 16.27 105.07 16.27L105.07 16.27Z"/></g>
            
          </svg>
        